# xmcd CD database file
#
# Track frame offsets:
#	150
#	24780
#	51108
#	79755
#	109139
#	134714
#	166241
#	195210
#	225700
#	255069
#
# Disc length: 3860 seconds
#
# Revision: 0
# Processed by: cddbd v1.5.2PL0 Copyright (c) Steve Scherf et al.
# Submitted via: CDex 1.51
#
DISCID=6f0f120a
DTITLE=Medwyn Goodall, Terry Oldfield and Friends - OM
DYEAR=2006
DGENRE=New Age
TTITLE0=Eastern Sunrise
TTITLE1=Mystery
TTITLE2=Angel Keeper
TTITLE3=Time
TTITLE4=Inner Journey
TTITLE5=Tenderness
TTITLE6=OM
TTITLE7=Crystal Fields
TTITLE8=Voyage
TTITLE9=Mahayana
EXTD=YEAR: 2006
EXTT0=
EXTT1=
EXTT2=
EXTT3=
EXTT4=
EXTT5=
EXTT6=
EXTT7=
EXTT8=
EXTT9=
PLAYORDER=
